<svg width="111" height="66" viewBox="0 0 111 66" fill="none" xmlns="http://www.w3.org/2000/svg">
<mask id="path-1-outside-1_1225_73" maskUnits="userSpaceOnUse" x="0" y="0" width="111" height="67" fill="#fff">
<rect fill="white" width="111" height="67"/>
<path d="M24.093 17.0439C29.7528 14.6534 37.6767 11.9593 41.4498 9.8723C53.1971 3.37498 27.1116 34.5745 9 57C37.6767 36.5097 48.2418 26.6061 71.2586 20.1175L43.7138 54.2682C58.4294 44.5922 91.2568 27.9938 96.9165 29.3381C102.576 30.6824 67.4853 57 78.0502 54.2682C88.6155 51.5359 101.444 50.8531 101.444 50.8531"/>
</mask>
<path d="M20.5912 8.75309C16.0123 10.6871 13.8682 15.9668 15.8022 20.5457C17.7361 25.1246 23.0158 27.2687 27.5947 25.3347L24.093 17.0439L20.5912 8.75309ZM41.4498 9.8723L37.0938 1.99665L37.0937 1.99671L41.4498 9.8723ZM9 57L1.99832 51.3452C-0.829516 54.8466 -0.636086 59.8987 2.4512 63.1736C5.53849 66.4485 10.5704 66.9393 14.2323 64.3228L9 57ZM71.2586 20.1175L78.264 25.7677C80.7233 22.7186 80.9279 18.4289 78.7699 15.1595C76.6119 11.8902 72.587 10.3922 68.8167 11.4551L71.2586 20.1175ZM43.7138 54.2682L36.7085 48.6179C33.9251 52.0687 34.0694 57.0325 37.0485 60.3159C40.0276 63.5992 44.9541 64.2239 48.6584 61.7882L43.7138 54.2682ZM96.9165 29.3381L94.8366 38.0945L94.8367 38.0945L96.9165 29.3381ZM78.0502 54.2682L80.3033 62.9816L80.3036 62.9815L78.0502 54.2682ZM101.923 59.8404C106.886 59.5762 110.696 55.3382 110.432 50.3747C110.168 45.4112 105.93 41.6016 100.966 41.8658L101.444 50.8531L101.923 59.8404ZM24.093 17.0439L27.5947 25.3347C30.2729 24.2036 33.4098 23.0323 36.7508 21.7284C39.8066 20.536 43.3035 19.132 45.8059 17.7479L41.4498 9.8723L37.0937 1.99671C35.823 2.69959 33.4714 3.68614 30.207 4.96008C27.2278 6.12271 23.573 7.49371 20.5912 8.75309L24.093 17.0439ZM41.4498 9.8723L45.8057 17.7479C46.296 17.4768 46.1564 17.6121 45.5927 17.7661C45.3 17.8461 44.5461 18.0294 43.505 17.996C42.4361 17.9616 40.6332 17.6766 38.8531 16.3729C34.8633 13.4507 35.3855 9.15223 35.4541 8.65541C35.5812 7.73566 35.8406 7.28465 35.693 7.60832C35.0865 8.93901 32.9788 12.1629 29.2127 17.2025C22.0302 26.8135 11.1685 39.9908 1.99832 51.3452L9 57L16.0017 62.6548C24.943 51.5837 36.1799 37.9484 43.6312 27.9777C47.182 23.2263 50.5251 18.467 52.0716 15.0744C52.4624 14.2172 53.054 12.7891 53.2847 11.1187C53.4571 9.87124 53.8544 5.04857 49.489 1.85127C45.7279 -0.903463 41.7141 0.166064 40.8478 0.402781C39.3844 0.802687 38.072 1.45566 37.0938 1.99665L41.4498 9.8723ZM9 57L14.2323 64.3228C43.716 43.2559 52.6168 34.7235 73.7006 28.7798L71.2586 20.1175L68.8167 11.4551C43.8667 18.4886 31.6374 29.7636 3.76768 49.6772L9 57ZM71.2586 20.1175L64.2533 14.4672L36.7085 48.6179L43.7138 54.2682L50.7191 59.9184L78.264 25.7677L71.2586 20.1175ZM43.7138 54.2682L48.6584 61.7882C55.5886 57.2313 67.1042 50.8536 77.6236 45.7756C82.8734 43.2414 87.6815 41.1253 91.4083 39.7464C93.2876 39.0511 94.7039 38.6138 95.663 38.389C97.0809 38.0566 96.3714 38.459 94.8366 38.0945L96.9165 29.3381L98.9963 20.5817C96.0467 19.8811 93.0732 20.5081 91.5551 20.864C89.5781 21.3274 87.3863 22.0419 85.1622 22.8649C80.6822 24.5224 75.3026 26.9086 69.7986 29.5654C58.8105 34.8696 46.5545 41.629 38.7691 46.7482L43.7138 54.2682ZM96.9165 29.3381L94.8367 38.0945C93.9982 37.8954 92.6468 37.4182 91.3391 36.2516C89.9304 34.995 89.0646 33.3732 88.7176 31.7392C88.1402 29.0205 89.1425 27.0999 89.1561 27.0709C89.3658 26.6261 89.2986 26.9096 88.1511 28.1975C86.134 30.4614 82.9456 33.4821 79.446 36.806C76.266 39.8263 72.5289 43.3691 70.3618 46.0269C69.7933 46.7242 69.0922 47.6467 68.5067 48.6889C68.1902 49.2522 66.6809 51.8578 67.1417 55.2485C67.4372 57.4225 68.5193 59.6654 70.5445 61.3069C72.3543 62.7737 74.2556 63.2234 75.4012 63.3752C77.5134 63.655 79.3879 63.2183 80.3033 62.9816L78.0502 54.2682L75.7972 45.5548C75.392 45.6595 76.3026 45.3373 77.7653 45.5311C78.5862 45.6399 80.2415 45.9964 81.8784 47.3232C83.731 48.8247 84.7136 50.8808 84.9778 52.8244C85.206 54.5036 84.8685 55.7883 84.6918 56.3459C84.4959 56.9642 84.2757 57.3701 84.1997 57.5054C84.054 57.7647 84.0228 57.7566 84.3121 57.4018C85.5763 55.8514 88.2773 53.243 91.842 49.8574C95.0871 46.7753 98.9499 43.1353 101.59 40.1719C102.772 38.8462 104.435 36.8745 105.439 34.7437C105.85 33.8718 107.015 31.2506 106.325 28C105.921 26.1001 104.93 24.2545 103.322 22.8196C101.814 21.4748 100.188 20.8649 98.9962 20.5817L96.9165 29.3381ZM78.0502 54.2682L80.3036 62.9815C84.9985 61.7674 90.3745 60.9707 94.7211 60.479C96.8629 60.2367 98.6909 60.0754 99.9749 59.9752C100.616 59.9252 101.118 59.8907 101.453 59.869C101.62 59.8582 101.746 59.8506 101.825 59.8459C101.865 59.8436 101.893 59.842 101.91 59.8411C101.918 59.8406 101.923 59.8403 101.925 59.8402C101.927 59.8402 101.927 59.8401 101.926 59.8402C101.926 59.8402 101.926 59.8402 101.925 59.8402C101.925 59.8402 101.924 59.8403 101.924 59.8403C101.924 59.8403 101.923 59.8404 101.444 50.8531C100.966 41.8658 100.965 41.8658 100.964 41.8659C100.964 41.8659 100.963 41.866 100.963 41.866C100.961 41.8661 100.96 41.8661 100.958 41.8662C100.954 41.8664 100.95 41.8667 100.945 41.867C100.935 41.8675 100.921 41.8682 100.905 41.8692C100.872 41.871 100.827 41.8736 100.77 41.8769C100.657 41.8836 100.496 41.8933 100.292 41.9065C99.8841 41.9329 99.3017 41.973 98.5748 42.0297C97.1232 42.143 95.0836 42.3232 92.6976 42.5931C87.9884 43.1258 81.6673 44.0367 75.7969 45.5548L78.0502 54.2682Z" fill="#fff" mask="url(#path-1-outside-1_1225_73)"/>
</svg>
